<svg width="44" height="44" viewBox="0 0 44 44" fill="none" xmlns="http://www.w3.org/2000/svg">
<circle cx="22" cy="22" r="22" fill="white"/>
<path d="M21.9079 34C21.8059 33.999 21.7039 33.9798 21.608 33.9425C21.3889 33.8546 21.3889 33.8546 20.5569 32.6985C19.0636 30.6136 18.2519 29.5152 17.1655 27.9985C16.2467 26.7182 15.0785 25.0917 14.7474 24.6443C10.8369 19.4273 13.8134 10.9827 20.4601 10.1517C26.7229 8.91184 32.1449 15.5039 30.5062 21.4658C30.1235 23.7578 27.0936 27.222 25.565 29.4754L22.5662 33.6624H22.5651C22.4127 33.8744 22.1683 33.9996 21.9079 33.9996L21.9079 34ZM19.5473 28.571C19.7785 28.8517 20.4701 29.8099 21.9068 31.8071C22.9064 30.4067 24.5037 28.151 25.5699 26.7144C26.9198 24.9061 28.723 22.5295 28.9332 21.0937C30.3144 16.2533 25.8447 10.6932 20.7075 11.7483C15.2644 12.3471 12.8505 19.5095 16.0509 23.6885C16.5749 24.3973 18.6296 27.2689 19.5604 28.5612L19.5473 28.571ZM21.8735 23.131C16.276 23.031 16.2799 14.8244 21.8735 14.7275C27.4922 14.8345 27.4307 23.04 21.8735 23.132V23.131ZM19.2565 18.9297C19.2636 20.3745 20.4408 21.5408 21.8857 21.5336C22.5793 21.5295 23.2437 21.2509 23.7324 20.7582C24.22 20.2655 24.4926 19.5981 24.4896 18.9044C24.4825 17.4596 23.3053 16.2933 21.8604 16.3006C20.4156 16.3078 19.2493 17.4849 19.2565 18.9297Z" fill="black"/>
</svg>
