<svg width="44" height="44" viewBox="0 0 44 44" fill="none" xmlns="http://www.w3.org/2000/svg">
<circle cx="22" cy="22" r="22" fill="white"/>
<path d="M24.4698 22.6217L31.5102 16.2177V27.8305C31.5102 28.3748 31.0698 28.8153 30.5254 28.8153H13.1695C12.6252 28.8153 12.1847 28.3748 12.1847 27.8305V16.2178L19.225 22.6217L19.225 22.6217C20.7123 23.9742 22.9825 23.9742 24.4698 22.6217L24.4698 22.6217ZM20.0895 21.6707L12.9791 15.203C13.0406 15.191 13.1042 15.1847 13.1695 15.1847H30.5254C30.5907 15.1847 30.6544 15.191 30.7158 15.203L23.6054 21.6707L23.6054 21.6707C22.6086 22.5778 21.0864 22.5778 20.0895 21.6707L20.0895 21.6707ZM13.1695 13.9C11.9162 13.9 10.9 14.9162 10.9 16.1695V27.8305C10.9 29.0838 11.9162 30.1 13.1695 30.1H30.5254C31.7788 30.1 32.7949 29.0838 32.7949 27.8305V16.1695C32.7949 14.9162 31.7788 13.9 30.5254 13.9H13.1695Z" fill="black" stroke="black" stroke-width="0.2"/>
</svg>
