<svg width="44" height="44" viewBox="0 0 44 44" fill="none" xmlns="http://www.w3.org/2000/svg">
<circle cx="22" cy="22" r="22" fill="white"/>
<path d="M29.7982 24.0614C28.8664 23.1553 27.3695 23.1785 26.4634 24.1103L25.0065 25.6098L25 25.6162C20.8619 23.6881 19.0589 20.572 18.4823 19.3094L19.9548 17.7906C20.3924 17.3388 20.6305 16.7429 20.6202 16.1136C20.6099 15.4842 20.3563 14.8947 19.9045 14.4558L17.0318 11.6654C16.58 11.2278 15.9841 11.0026 15.3547 11C14.7253 11.0103 14.1359 11.2639 13.697 11.7156L11.9929 13.4686C11.3171 14.1675 10.9555 15.1097 11.0044 16.0582C11.1061 18.0545 11.9465 22.1202 16.4344 26.9417L17.4036 27.8839L17.4268 27.907C22.3652 32.2392 26.4568 32.9575 28.4572 33H28.5293C29.4547 33 30.3582 32.6139 31.0172 31.9356L32.7213 30.1826C33.6274 29.2507 33.6042 27.7538 32.6724 26.8478L29.7982 24.0614ZM31.7752 29.2638L30.0711 31.0168C29.6489 31.4518 29.0762 31.6989 28.4867 31.6822C26.6681 31.6423 22.9278 30.9704 18.3189 26.9276L17.3832 26.0215C13.2016 21.5308 12.4204 17.8112 12.3288 15.9924C12.2992 15.4093 12.5231 14.8224 12.9453 14.3874L14.6494 12.6344C14.8437 12.4336 15.1037 12.3216 15.3805 12.3178C15.6533 12.301 15.921 12.4169 16.118 12.6112L18.9907 15.4016C19.4026 15.8006 19.4129 16.4596 19.0139 16.8715L17.5415 18.3902C17.1528 18.7892 17.0537 19.3723 17.2879 19.8729C17.9302 21.2565 19.9174 24.6994 24.4478 26.8091C24.9549 27.0459 25.5611 26.9314 25.9537 26.5259L27.4107 25.0265C27.8096 24.6146 28.4686 24.6043 28.8805 25.0033L31.752 27.7937C32.1638 28.1966 32.1742 28.8558 31.7752 29.2638Z" fill="black"/>
</svg>
