<svg width="44" height="44" viewBox="0 0 44 44" fill="none" xmlns="http://www.w3.org/2000/svg">
<circle cx="22" cy="22" r="22" fill="white"/>
<path d="M31.4529 24.5156V23.4934C31.4529 23.1546 31.3134 22.8455 31.0882 22.6216C30.863 22.3976 30.5522 22.2588 30.2115 22.2588H27.8557V26.5714H30.2115C30.5522 26.5714 30.863 26.4327 31.0882 26.2087C31.3134 25.9847 31.4529 25.6766 31.4529 25.3378V24.5156ZM24.7704 34H20.6091C19.9586 34 19.3687 33.7359 18.9414 33.3109C18.5131 32.885 18.2485 32.2984 18.2485 31.6524C18.2485 31.0054 18.5141 30.4187 18.9414 29.9938C19.3687 29.5679 19.9595 29.3047 20.6091 29.3047H22.9746C23.6251 29.3047 24.2151 29.5689 24.6423 29.9938C25.0706 30.4187 25.3352 31.0063 25.3352 31.6524V32.8755H27.5323C28.6101 32.8755 29.5898 32.4362 30.2999 31.7299C31.0101 31.0226 31.4518 30.0493 31.4518 28.9775V27.3467C31.09 27.5687 30.6646 27.697 30.2104 27.697H27.2898C26.977 27.697 26.7239 27.4453 26.7239 27.1342V21.6973C26.7239 21.3862 26.977 21.1345 27.2898 21.1345H30.2104C30.6646 21.1345 31.0909 21.2628 31.4518 21.4848V20.7326C31.4518 18.0912 30.3643 15.6889 28.6137 13.9481C26.8623 12.2072 24.4478 11.1257 21.7918 11.1257C19.1357 11.1257 16.7202 12.2071 14.9698 13.9481C13.2193 15.69 12.1317 18.0921 12.1317 20.7326V21.4848C12.4936 21.2628 12.9189 21.1345 13.3731 21.1345H16.2937C16.6065 21.1345 16.8596 21.3862 16.8596 21.6973V27.1342C16.8596 27.4443 16.6065 27.697 16.2937 27.697H13.3731C12.7207 27.697 12.1269 27.4319 11.6967 27.0041C11.2675 26.5772 11 25.9867 11 25.3369V20.7325C11 17.7799 12.2145 15.0973 14.1699 13.1525C16.1254 11.2076 18.8239 10 21.7918 10C24.7607 10 27.4581 11.2078 29.4137 13.1525C31.3693 15.0972 32.5837 17.7809 32.5837 20.7325V28.9764C32.5837 30.3584 32.0149 31.6142 31.1007 32.5241C30.1855 33.4352 28.9229 33.9989 27.5334 33.9989H24.7695L24.7704 34ZM20.6091 32.8745H24.2045V31.6514C24.2045 31.3154 24.0659 31.0101 23.8427 30.7881C23.6194 30.5661 23.3124 30.4283 22.9746 30.4283H20.6092C20.2714 30.4283 19.9644 30.5661 19.7411 30.7881C19.5179 31.0102 19.3793 31.3154 19.3793 31.6514C19.3793 31.9873 19.5179 32.2926 19.7411 32.5146C19.9644 32.7367 20.2713 32.8745 20.6091 32.8745ZM15.7272 22.2589H13.3714C13.0308 22.2589 12.7199 22.3977 12.4947 22.6216C12.2695 22.8456 12.13 23.1547 12.13 23.4935V25.3368C12.13 25.6756 12.2695 25.9847 12.4947 26.2077C12.7199 26.4316 13.0308 26.5704 13.3714 26.5704H15.7272V22.2578V22.2589Z" fill="black" stroke="black" stroke-width="0.3"/>
</svg>
